<?xml version="1.0" encoding="UTF-8" standalone="no"?>
<!DOCTYPE svg PUBLIC "-//W3C//DTD SVG 1.1//EN"
 "http://www.w3.org/Graphics/SVG/1.1/DTD/svg11.dtd">
<!-- Generated by graphviz version 2.36.0 (20140111.2315)
 -->
<!-- Title: G Pages: 1 -->
<svg width="302pt" height="1176pt"
 viewBox="0.00 0.00 302.00 1176.00" xmlns="http://www.w3.org/2000/svg" xmlns:xlink="http://www.w3.org/1999/xlink">
<g id="graph0" class="graph" transform="scale(1 1) rotate(0) translate(4 1172)">
<title>G</title>
<polygon fill="white" stroke="none" points="-4,4 -4,-1172 298,-1172 298,4 -4,4"/>
<g id="clust1" class="cluster"><title>cluster_Global</title>
<path fill="none" stroke="gray" d="M20,-8C20,-8 274,-8 274,-8 280,-8 286,-14 286,-20 286,-20 286,-1148 286,-1148 286,-1154 280,-1160 274,-1160 274,-1160 20,-1160 20,-1160 14,-1160 8,-1154 8,-1148 8,-1148 8,-20 8,-20 8,-14 14,-8 20,-8"/>
<text text-anchor="middle" x="147" y="-1147.2" font-family="Times,serif" font-size="11.00" fill="gray">Global</text>
</g>
<!-- \\ZContext -->
<g id="node1" class="node"><title>\\ZContext</title>
<polygon fill="none" stroke="black" points="254.5,-1132 183.5,-1132 183.5,-1096 254.5,-1096 254.5,-1132"/>
<text text-anchor="middle" x="219" y="-1111.2" font-family="Courier,monospace" font-size="11.00">ZContext</text>
</g>
<!-- \\ZSys -->
<g id="node2" class="node"><title>\\ZSys</title>
<polygon fill="none" stroke="black" points="246,-1078 192,-1078 192,-1042 246,-1042 246,-1078"/>
<text text-anchor="middle" x="219" y="-1057.2" font-family="Courier,monospace" font-size="11.00">ZSys</text>
</g>
<!-- \\ZUdp -->
<g id="node3" class="node"><title>\\ZUdp</title>
<polygon fill="none" stroke="black" points="246,-1024 192,-1024 192,-988 246,-988 246,-1024"/>
<text text-anchor="middle" x="219" y="-1003.2" font-family="Courier,monospace" font-size="11.00">ZUdp</text>
</g>
<!-- \\ZMsg -->
<g id="node4" class="node"><title>\\ZMsg</title>
<polygon fill="none" stroke="black" points="246,-970 192,-970 192,-934 246,-934 246,-970"/>
<text text-anchor="middle" x="219" y="-949.2" font-family="Courier,monospace" font-size="11.00">ZMsg</text>
</g>
<!-- \\ZFrame -->
<g id="node5" class="node"><title>\\ZFrame</title>
<polygon fill="none" stroke="black" points="247.5,-916 190.5,-916 190.5,-880 247.5,-880 247.5,-916"/>
<text text-anchor="middle" x="219" y="-895.2" font-family="Courier,monospace" font-size="11.00">ZFrame</text>
</g>
<!-- \\ZPoll -->
<g id="node6" class="node"><title>\\ZPoll</title>
<polygon fill="none" stroke="black" points="246,-862 192,-862 192,-826 246,-826 246,-862"/>
<text text-anchor="middle" x="219" y="-841.2" font-family="Courier,monospace" font-size="11.00">ZPoll</text>
</g>
<!-- \\ZPoller -->
<g id="node7" class="node"><title>\\ZPoller</title>
<polygon fill="none" stroke="black" points="251,-808 187,-808 187,-772 251,-772 251,-808"/>
<text text-anchor="middle" x="219" y="-787.2" font-family="Courier,monospace" font-size="11.00">ZPoller</text>
</g>
<!-- \\ZReactor -->
<g id="node8" class="node"><title>\\ZReactor</title>
<polygon fill="none" stroke="black" points="254.5,-754 183.5,-754 183.5,-718 254.5,-718 254.5,-754"/>
<text text-anchor="middle" x="219" y="-733.2" font-family="Courier,monospace" font-size="11.00">ZReactor</text>
</g>
<!-- \\ZCert -->
<g id="node9" class="node"><title>\\ZCert</title>
<polygon fill="none" stroke="black" points="246,-700 192,-700 192,-664 246,-664 246,-700"/>
<text text-anchor="middle" x="219" y="-679.2" font-family="Courier,monospace" font-size="11.00">ZCert</text>
</g>
<!-- \\ZCertStore -->
<g id="node10" class="node"><title>\\ZCertStore</title>
<polygon fill="none" stroke="black" points="261,-646 177,-646 177,-610 261,-610 261,-646"/>
<text text-anchor="middle" x="219" y="-625.2" font-family="Courier,monospace" font-size="11.00">ZCertStore</text>
</g>
<!-- \\ZSocket -->
<g id="node11" class="node"><title>\\ZSocket</title>
<polygon fill="none" stroke="black" points="251,-592 187,-592 187,-556 251,-556 251,-592"/>
<text text-anchor="middle" x="219" y="-571.2" font-family="Courier,monospace" font-size="11.00">ZSocket</text>
</g>
<!-- \\IZSocket -->
<g id="node22" class="node"><title>\\IZSocket</title>
<polygon fill="none" stroke="black" points="87.5,-484 16.5,-484 16.5,-448 87.5,-448 87.5,-484"/>
<text text-anchor="middle" x="52" y="-463.2" font-family="Courier,monospace" font-size="11.00">IZSocket</text>
</g>
<!-- \\ZSocket&#45;&gt;\\IZSocket -->
<g id="edge1" class="edge"><title>\\ZSocket&#45;&gt;\\IZSocket</title>
<path fill="none" stroke="black" stroke-dasharray="1,5" d="M186.969,-561.029C178.06,-556.914 168.469,-552.098 160,-547 132.157,-530.241 102.889,-507.698 82.0157,-490.649"/>
<polygon fill="none" stroke="black" points="84.1111,-487.84 74.1699,-484.176 79.6565,-493.24 84.1111,-487.84"/>
</g>
<!-- \\ZProxy -->
<g id="node12" class="node"><title>\\ZProxy</title>
<polygon fill="none" stroke="black" points="247.5,-538 190.5,-538 190.5,-502 247.5,-502 247.5,-538"/>
<text text-anchor="middle" x="219" y="-517.2" font-family="Courier,monospace" font-size="11.00">ZProxy</text>
</g>
<!-- \\ZProxy&#45;&gt;\\IZSocket -->
<g id="edge2" class="edge"><title>\\ZProxy&#45;&gt;\\IZSocket</title>
<path fill="none" stroke="black" stroke-dasharray="1,5" d="M190.383,-510.962C164.996,-502.653 126.921,-490.192 97.2878,-480.494"/>
<polygon fill="none" stroke="black" points="98.1852,-477.105 87.5925,-477.321 96.0079,-483.758 98.1852,-477.105"/>
</g>
<!-- \\ZBeacon -->
<g id="node13" class="node"><title>\\ZBeacon</title>
<polygon fill="none" stroke="black" points="251,-484 187,-484 187,-448 251,-448 251,-484"/>
<text text-anchor="middle" x="219" y="-463.2" font-family="Courier,monospace" font-size="11.00">ZBeacon</text>
</g>
<!-- \\ZBeacon&#45;&gt;\\IZSocket -->
<g id="edge3" class="edge"><title>\\ZBeacon&#45;&gt;\\IZSocket</title>
<path fill="none" stroke="black" stroke-dasharray="1,5" d="M186.965,-466C161.773,-466 125.921,-466 97.6446,-466"/>
<polygon fill="none" stroke="black" points="97.6036,-462.5 87.6035,-466 97.6035,-469.5 97.6036,-462.5"/>
</g>
<!-- \\ZAuth -->
<g id="node14" class="node"><title>\\ZAuth</title>
<polygon fill="none" stroke="black" points="246,-430 192,-430 192,-394 246,-394 246,-430"/>
<text text-anchor="middle" x="219" y="-409.2" font-family="Courier,monospace" font-size="11.00">ZAuth</text>
</g>
<!-- \\ZAuth&#45;&gt;\\IZSocket -->
<g id="edge4" class="edge"><title>\\ZAuth&#45;&gt;\\IZSocket</title>
<path fill="none" stroke="black" stroke-dasharray="1,5" d="M191.855,-420.556C166.546,-428.839 127.684,-441.558 97.5024,-451.436"/>
<polygon fill="none" stroke="black" points="96.0471,-448.229 87.6318,-454.666 98.2245,-454.882 96.0471,-448.229"/>
</g>
<!-- \\ZGossip -->
<g id="node15" class="node"><title>\\ZGossip</title>
<polygon fill="none" stroke="black" points="251,-376 187,-376 187,-340 251,-340 251,-376"/>
<text text-anchor="middle" x="219" y="-355.2" font-family="Courier,monospace" font-size="11.00">ZGossip</text>
</g>
<!-- \\ZGossip&#45;&gt;\\IZSocket -->
<g id="edge5" class="edge"><title>\\ZGossip&#45;&gt;\\IZSocket</title>
<path fill="none" stroke="black" stroke-dasharray="1,5" d="M186.969,-370.971C178.06,-375.086 168.469,-379.902 160,-385 132.157,-401.759 102.889,-424.302 82.0157,-441.351"/>
<polygon fill="none" stroke="black" points="79.6565,-438.76 74.1699,-447.824 84.1111,-444.16 79.6565,-438.76"/>
</g>
<!-- \\Zyre -->
<g id="node16" class="node"><title>\\Zyre</title>
<polygon fill="none" stroke="black" points="246,-322 192,-322 192,-286 246,-286 246,-322"/>
<text text-anchor="middle" x="219" y="-301.2" font-family="Courier,monospace" font-size="11.00">Zyre</text>
</g>
<!-- \\MajordomoBroker -->
<g id="node17" class="node"><title>\\MajordomoBroker</title>
<polygon fill="none" stroke="black" points="278,-268 160,-268 160,-232 278,-232 278,-268"/>
<text text-anchor="middle" x="219" y="-247.2" font-family="Courier,monospace" font-size="11.00">MajordomoBroker</text>
</g>
<!-- \\MajordomoWorker -->
<g id="node18" class="node"><title>\\MajordomoWorker</title>
<polygon fill="none" stroke="black" points="278,-214 160,-214 160,-178 278,-178 278,-214"/>
<text text-anchor="middle" x="219" y="-193.2" font-family="Courier,monospace" font-size="11.00">MajordomoWorker</text>
</g>
<!-- \\MajordomoClient -->
<g id="node19" class="node"><title>\\MajordomoClient</title>
<polygon fill="none" stroke="black" points="278,-160 160,-160 160,-124 278,-124 278,-160"/>
<text text-anchor="middle" x="219" y="-139.2" font-family="Courier,monospace" font-size="11.00">MajordomoClient</text>
</g>
<!-- \\MalamuteBroker -->
<g id="node20" class="node"><title>\\MalamuteBroker</title>
<polygon fill="none" stroke="black" points="274.5,-106 163.5,-106 163.5,-70 274.5,-70 274.5,-106"/>
<text text-anchor="middle" x="219" y="-85.2" font-family="Courier,monospace" font-size="11.00">MalamuteBroker</text>
</g>
<!-- \\MalamuteClient -->
<g id="node21" class="node"><title>\\MalamuteClient</title>
<polygon fill="none" stroke="black" points="274.5,-52 163.5,-52 163.5,-16 274.5,-16 274.5,-52"/>
<text text-anchor="middle" x="219" y="-31.2" font-family="Courier,monospace" font-size="11.00">MalamuteClient</text>
</g>
</g>
</svg>
